<svg width="30" height="30" viewBox="0 0 30 30" fill="none" xmlns="http://www.w3.org/2000/svg">
<circle cx="15" cy="15" r="13.75" stroke="#2C4469" stroke-width="2.5"/>
<path d="M10.3921 22V20.0057L15.0519 15.6911C15.4482 15.3075 15.7806 14.9624 16.0491 14.6555C16.3218 14.3487 16.5285 14.0483 16.6691 13.7543C16.8097 13.456 16.8801 13.1342 16.8801 12.7891C16.8801 12.4055 16.7927 12.0753 16.618 11.7983C16.4433 11.517 16.2046 11.3018 15.9021 11.1527C15.5995 10.9993 15.2565 10.9226 14.873 10.9226C14.4724 10.9226 14.123 11.0036 13.8247 11.1655C13.5264 11.3274 13.2963 11.5597 13.1343 11.8622C12.9724 12.1648 12.8914 12.5249 12.8914 12.9425H10.2643C10.2643 12.0859 10.4582 11.3423 10.846 10.7116C11.2338 10.081 11.7771 9.59304 12.4759 9.24787C13.1748 8.9027 13.9802 8.73011 14.8921 8.73011C15.8296 8.73011 16.6457 8.89631 17.3403 9.22869C18.0392 9.55682 18.5825 10.0128 18.9703 10.5966C19.358 11.1804 19.5519 11.8494 19.5519 12.6037C19.5519 13.098 19.4539 13.5859 19.2579 14.0675C19.0661 14.549 18.7231 15.0838 18.2288 15.6719C17.7345 16.2557 17.0377 16.9567 16.1386 17.7749L14.2274 19.6477V19.7372H19.7245V22H10.3921Z" fill="#2C4469"/>
</svg>
