<svg width="30" height="30" viewBox="0 0 30 30" fill="none" xmlns="http://www.w3.org/2000/svg">
<circle cx="15" cy="15" r="13.75" stroke="#2C4469" stroke-width="2.5"/>
<path d="M14.9672 22.179C14.0127 22.179 13.1626 22.0149 12.4168 21.6868C11.6753 21.3544 11.0894 20.8984 10.659 20.3189C10.2329 19.7351 10.0134 19.0618 10.0006 18.299H12.7876C12.8046 18.6186 12.909 18.8999 13.1008 19.1428C13.2968 19.3814 13.5567 19.5668 13.8806 19.6989C14.2045 19.831 14.5688 19.897 14.9736 19.897C15.3955 19.897 15.7684 19.8224 16.0922 19.6733C16.4161 19.5241 16.6697 19.3175 16.8529 19.0533C17.0361 18.7891 17.1278 18.4844 17.1278 18.1392C17.1278 17.7898 17.0297 17.4808 16.8337 17.2124C16.642 16.9396 16.365 16.7266 16.0028 16.5732C15.6448 16.4197 15.2187 16.343 14.7243 16.343H13.5035V14.3104H14.7243C15.142 14.3104 15.5106 14.2379 15.8302 14.093C16.154 13.9482 16.4055 13.7479 16.5844 13.4922C16.7634 13.2322 16.8529 12.9297 16.8529 12.5845C16.8529 12.2564 16.7741 11.9688 16.6164 11.7216C16.463 11.4702 16.2457 11.2741 15.9644 11.1335C15.6874 10.9929 15.3635 10.9226 14.9928 10.9226C14.6178 10.9226 14.2748 10.9908 13.9637 11.1271C13.6526 11.2592 13.4033 11.4489 13.2158 11.696C13.0283 11.9432 12.9282 12.233 12.9154 12.5653H10.2627C10.2755 11.8111 10.4907 11.1463 10.9083 10.571C11.3259 9.99574 11.8884 9.54616 12.5958 9.2223C13.3074 8.89418 14.1107 8.73011 15.0056 8.73011C15.909 8.73011 16.6995 8.89418 17.377 9.2223C18.0546 9.55043 18.5809 9.99361 18.9559 10.5518C19.3351 11.1058 19.5226 11.728 19.5184 12.4183C19.5226 13.1513 19.2947 13.7628 18.8344 14.2528C18.3785 14.7429 17.784 15.054 17.051 15.1861V15.2884C18.0141 15.4119 18.7471 15.7464 19.2499 16.2919C19.757 16.8331 20.0084 17.5107 20.0042 18.3246C20.0084 19.0703 19.7932 19.733 19.3586 20.3125C18.9282 20.892 18.3337 21.348 17.5752 21.6804C16.8167 22.0128 15.9474 22.179 14.9672 22.179Z" fill="#2C4469"/>
</svg>
